<svg width="386" height="220" viewBox="0 0 386 220" fill="none" xmlns="http://www.w3.org/2000/svg">
<path d="M135.274 48.4633C135.765 48.9547 136.257 50.4289 136.748 52.8859C137.239 55.343 137.669 58.2914 138.038 61.7312C138.529 65.1711 138.898 68.8566 139.144 72.7879C139.389 76.7191 139.512 80.4047 139.512 83.8445C139.635 87.2843 139.574 90.2328 139.328 92.6898C139.205 95.1468 138.898 96.6211 138.407 97.1125V100.245H135.274L129.377 115.356C129.377 116.093 129.193 116.707 128.824 117.199C128.578 117.69 128.21 118.12 127.718 118.489C127.35 118.857 126.981 119.287 126.613 119.779C126.367 120.147 126.244 120.7 126.244 121.437C125.753 122.051 125.261 122.666 124.77 123.28C124.401 123.894 124.033 124.57 123.664 125.307C123.419 126.044 123.296 126.781 123.296 127.518C122.559 127.518 121.944 127.702 121.453 128.071C120.962 128.317 120.532 128.624 120.163 128.992C119.795 129.361 119.365 129.73 118.873 130.098C118.382 130.344 117.768 130.467 117.03 130.467C116.293 130.467 115.863 130.528 115.74 130.651C115.618 130.651 115.556 130.774 115.556 131.019C115.556 131.142 115.495 131.449 115.372 131.941C115.249 132.309 114.819 132.862 114.082 133.599H110.949C110.335 133.599 109.721 133.722 109.106 133.968C107.755 134.459 106.404 135.381 105.052 136.732C104.315 136.732 103.21 136.916 101.735 137.285C100.384 137.531 98.9098 137.838 97.3127 138.206C95.8385 138.575 94.3643 138.943 92.8901 139.312C91.5387 139.558 90.4945 139.68 89.7574 139.68C90.2488 141.4 90.6173 142.936 90.863 144.287C91.1087 145.393 91.1702 146.437 91.0473 147.42C90.9245 148.28 90.4945 148.71 89.7574 148.71C89.7574 149.447 89.266 150 88.2832 150.369C87.4232 150.86 86.379 151.106 85.1505 151.106C84.0448 151.106 83.0006 150.86 82.0177 150.369C81.1578 150 80.7278 149.447 80.7278 148.71C79.9907 147.973 79.4993 147.236 79.2536 146.499C79.1307 145.762 79.0693 145.147 79.0693 144.656C79.0693 144.042 79.0079 143.612 78.885 143.366C78.7622 142.997 78.3322 142.813 77.5951 142.813C76.858 142.076 76.2437 141.523 75.7523 141.155C75.2609 140.663 74.7081 140.356 74.0938 140.233C73.6024 139.988 72.9267 139.865 72.0668 139.865C71.2068 139.742 69.9783 139.68 68.3812 139.68C65.4328 138.206 62.9143 136.732 60.8259 135.258C58.8602 133.661 56.3418 132.064 53.2705 130.467C51.7963 130.467 50.8135 129.852 50.3221 128.624C49.8307 127.395 48.7864 125.983 47.1894 124.385L44.0566 121.437C43.3195 119.963 42.4596 117.69 41.4768 114.619C40.494 111.425 39.5111 108.169 38.5283 104.852C37.6684 101.412 36.8698 98.1567 36.1327 95.0854C35.5185 91.8913 35.2113 89.5571 35.2113 88.0829C34.4742 87.3458 33.86 86.3015 33.3686 84.9502C33 83.4759 32.8157 82.1246 32.8157 80.8961C32.8157 79.5447 33 78.3776 33.3686 77.3948C33.86 76.412 34.4742 75.9206 35.2113 75.9206C35.7027 73.095 36.1942 70.4537 36.6856 67.9967C37.0541 65.9082 37.3612 63.8811 37.6069 61.9155C37.9755 59.827 38.1598 58.4142 38.1598 57.6771C39.2654 55.9572 40.2482 54.2987 41.1082 52.7017C41.8453 51.3503 42.521 49.9989 43.1353 48.6476C43.7495 47.2962 44.0566 46.252 44.0566 45.5148C44.7938 44.7777 45.3466 44.0406 45.7151 43.3035C46.2065 42.5664 46.5751 41.8907 46.8208 41.2765C47.0665 40.6622 47.1894 40.048 47.1894 39.4337C48.7864 36.3624 50.8135 33.4754 53.2705 30.7727C55.8504 27.9471 57.9389 25.7358 59.5359 24.1387H62.4844C62.4844 23.4016 62.9758 22.5416 63.9586 21.5588C64.9414 20.4531 66.1699 19.4703 67.6441 18.6104C69.2412 17.6276 70.8997 16.829 72.6196 16.2148C74.4624 15.4777 76.1209 15.1091 77.5951 15.1091C77.5951 12.8978 77.7179 10.8707 77.9636 9.02797C78.2093 7.55375 78.5165 6.20238 78.885 4.97387C79.2536 3.6225 79.8678 2.94682 80.7278 2.94682H86.6247C87.3618 2.94682 87.9146 3.74536 88.2832 5.34243C88.7746 6.93949 89.1431 8.65942 89.3888 10.5022C89.6345 12.7135 89.7574 15.232 89.7574 18.0575L105.052 21.1903L114.082 24.1387H117.03L120.163 27.2714C121.76 27.2714 122.682 27.3943 122.927 27.64C123.173 27.8857 123.296 28.807 123.296 30.4041H126.244L129.377 36.301C129.991 37.5295 130.605 38.6966 131.22 39.8023C131.834 40.7851 132.448 41.8293 133.063 42.935C133.8 43.9178 134.537 44.7777 135.274 45.5148V48.4633ZM126.244 88.0829C127.227 87.5915 127.78 86.2401 127.903 84.0288C128.026 81.8174 127.841 79.2376 127.35 76.2891C126.859 73.3407 126.183 70.1466 125.323 66.7067C124.586 63.2669 123.787 60.0727 122.927 57.1243C122.19 54.1759 121.514 51.6574 120.9 49.5689C120.409 47.3576 120.163 46.0063 120.163 45.5148C118.443 43.7949 116.908 42.1364 115.556 40.5394C114.328 39.188 113.222 37.8366 112.239 36.4853C111.379 35.1339 110.949 34.0897 110.949 33.3525L105.052 30.4041C101.613 29.9127 98.5413 29.5442 95.8385 29.2985C93.5044 29.0527 91.3544 28.9913 89.3888 29.1142C87.5461 29.237 86.6247 29.667 86.6247 30.4041C85.1505 30.4041 83.9834 30.4655 83.1234 30.5884C82.2634 30.5884 81.4649 30.7112 80.7278 30.9569C79.9907 31.0798 79.1307 31.3255 78.1479 31.6941C77.288 32.0626 76.1209 32.6154 74.6467 33.3525C73.0496 33.3525 70.9611 33.9668 68.3812 35.1953C65.9242 36.4238 63.9586 37.8366 62.4844 39.4337H59.5359V42.3821L53.2705 48.4633C51.7963 50.0603 50.8135 52.2717 50.3221 55.0973C49.8307 57.8 48.7864 60.687 47.1894 63.7583V81.8174C47.1894 82.5546 47.0051 83.3531 46.6365 84.2131C46.3908 84.9502 46.1451 85.7487 45.8994 86.6087C45.7766 87.3458 45.7766 88.0829 45.8994 88.82C46.0223 89.5571 46.4522 90.2942 47.1894 91.0313C47.1894 92.5055 47.3736 94.3483 47.7422 96.5596C48.1107 98.6481 48.5407 100.859 49.0321 103.194C49.6464 105.528 50.3221 107.801 51.0592 110.012C51.7963 112.1 52.5334 113.882 53.2705 115.356L59.5359 121.437L68.3812 124.385H71.5139C72.6196 124.385 73.6024 124.508 74.4624 124.754C75.1995 125 75.8752 125.368 76.4894 125.86C77.2265 126.228 77.5951 126.781 77.5951 127.518H89.7574C90.4945 127.518 91.0473 127.395 91.4159 127.15C91.9073 126.781 92.3373 126.535 92.7058 126.413C93.0744 126.167 93.5044 126.105 93.9958 126.228C94.4872 126.351 95.1014 126.781 95.8385 127.518L105.052 124.385C105.052 123.648 105.482 122.911 106.342 122.174C107.325 121.437 108.369 120.7 109.475 119.963C110.704 119.226 111.748 118.489 112.608 117.751C113.591 116.892 114.082 116.093 114.082 115.356C114.696 113.636 115.31 112.223 115.925 111.118C116.539 110.135 117.153 109.398 117.768 108.906C118.505 108.415 119.303 108.538 120.163 109.275V106.142C120.163 105.405 120.286 104.545 120.532 103.562C120.9 102.456 121.269 101.351 121.637 100.245C122.129 99.0166 122.497 97.911 122.743 96.9282C123.112 95.8225 123.296 94.9011 123.296 94.164L126.244 88.0829ZM95.8385 79.0533C95.8385 80.4047 95.7157 81.8789 95.47 83.4759C95.2243 84.9502 94.3029 86.4858 92.7058 88.0829C91.2316 89.5571 89.3274 90.0485 86.9932 89.5571C84.659 88.9428 82.5092 87.7757 80.5435 86.0558C78.7008 84.3359 77.3494 82.2474 76.4894 79.7904C75.7523 77.3334 76.1209 74.9992 77.5951 72.7879C78.3322 72.7879 78.9465 72.665 79.4379 72.4193C79.9293 72.0508 80.4207 71.6822 80.9121 71.3137C81.5263 70.9451 82.2634 70.638 83.1234 70.3923C83.9834 70.0237 85.1505 69.8394 86.6247 69.8394C88.2217 69.8394 89.7574 70.4537 91.2316 71.6822C92.7058 72.9107 94.2415 74.3235 95.8385 75.9206V79.0533Z" fill="#A0BDDB"/>
<path d="M169.757 3.13109C170.494 3.8682 170.924 4.48246 171.047 4.97387C171.169 5.46528 171.108 5.89526 170.862 6.26381C170.74 6.63236 170.494 7.06234 170.125 7.55375C169.88 7.92231 169.757 8.47514 169.757 9.21224C169.757 10.6865 169.757 11.8535 169.757 12.7135C169.88 13.5735 170.002 14.3106 170.125 14.9248C170.371 15.4162 170.678 15.9076 171.047 16.399C171.538 16.8905 172.152 17.5661 172.889 18.4261C174.486 19.9003 176.022 20.8831 177.496 21.3745C178.971 21.8659 180.445 22.8488 181.919 24.323C184.99 24.323 187.877 24.9372 190.58 26.1657C193.283 27.3943 195.371 28.7456 196.845 30.2198H199.978V33.3525H203.111L209.008 39.2494C210.359 39.2494 211.28 39.7408 211.772 40.7236C212.018 41.215 212.14 41.7065 212.14 42.1978L215.089 45.3306C215.089 48.1561 215.212 50.6746 215.457 52.8859C215.703 54.8516 216.01 56.6329 216.379 58.23C216.747 59.7042 217.3 60.4413 218.037 60.4413V75.3677C218.037 77.7019 217.669 80.9575 216.932 85.1344C216.317 89.1885 215.519 93.4269 214.536 97.8496C213.676 102.149 212.693 106.142 211.588 109.828C210.605 113.513 209.745 116.093 209.008 117.567C207.534 120.639 205.506 123.034 202.927 124.754C200.47 126.474 198.443 128.071 196.845 129.545V132.678H193.897L188 138.575C186.403 138.575 184.867 138.698 183.393 138.943C181.919 139.189 180.445 140.049 178.971 141.523H169.757C169.757 142.383 169.695 143.059 169.572 143.55C169.572 144.042 169.45 144.472 169.204 144.84C169.081 145.209 168.835 145.639 168.467 146.13C168.098 146.499 167.545 147.052 166.808 147.789C165.334 149.263 164.351 150.123 163.86 150.369C163.368 150.614 162.324 150.737 160.727 150.737C159.99 150.737 159.437 150.43 159.069 149.816C158.7 149.201 158.393 148.526 158.147 147.789C157.902 146.929 157.779 145.946 157.779 144.84C157.042 144.84 156.612 144.656 156.489 144.287C156.366 143.919 156.304 143.427 156.304 142.813C156.304 142.199 156.243 141.523 156.12 140.786C155.997 140.049 155.567 139.312 154.83 138.575C155.567 137.101 155.936 135.811 155.936 134.705C156.059 133.476 155.997 132.309 155.752 131.204C155.629 129.975 155.445 128.808 155.199 127.702C154.953 126.474 154.83 125.123 154.83 123.648C154.83 122.174 155.322 120.7 156.304 119.226C157.287 117.629 157.779 116.093 157.779 114.619V36.301C157.779 34.8268 157.656 32.8611 157.41 30.4041C157.164 27.8242 156.304 25.7972 154.83 24.323V15.1091C154.83 14.0034 154.953 12.8978 155.199 11.7921C155.445 10.8093 155.752 9.8265 156.12 8.84368C156.489 7.86088 157.042 7.00092 157.779 6.26381C157.779 4.78959 158.086 3.80678 158.7 3.31538C159.437 2.70111 160.359 2.39398 161.464 2.39398C162.693 2.39398 163.983 2.51683 165.334 2.76254C166.808 3.00824 168.282 3.13109 169.757 3.13109ZM199.978 45.3306L193.897 42.1978L190.949 39.2494H184.867C184.867 38.5123 184.806 38.0823 184.683 37.9595C184.683 37.8366 184.56 37.7752 184.315 37.7752C184.192 37.7752 183.946 37.7138 183.577 37.5909C183.209 37.4681 182.656 37.0381 181.919 36.301C181.428 36.301 180.936 36.1781 180.445 35.9324C179.462 35.441 178.971 34.5811 178.971 33.3525C177.251 32.8611 175.715 32.6154 174.364 32.6154C173.135 32.6154 172.029 32.8611 171.047 33.3525C170.187 33.844 169.757 34.8268 169.757 36.301V129.545C170.494 130.282 171.231 130.589 171.968 130.467C172.828 130.221 173.627 129.852 174.364 129.361C175.224 128.747 176.022 128.132 176.759 127.518C177.496 126.904 178.233 126.597 178.971 126.597L181.919 123.648C182.656 123.648 183.209 123.526 183.577 123.28C184.069 122.911 184.499 122.543 184.867 122.174C185.236 121.806 185.666 121.498 186.157 121.253C186.649 120.884 187.263 120.7 188 120.7C188 119.963 188.307 119.226 188.922 118.489C189.536 117.629 190.211 116.83 190.949 116.093C191.686 115.356 192.361 114.619 192.976 113.882C193.59 113.145 193.897 112.407 193.897 111.67V108.538C195.371 108.538 196.723 107.309 197.951 104.852C199.302 102.272 199.978 99.5081 199.978 96.5596C200.715 95.0854 201.145 93.4883 201.268 91.7684C201.391 89.9256 201.452 88.2671 201.452 86.7929C201.452 85.3187 201.514 84.0902 201.637 83.1074C201.882 82.1246 202.374 81.6332 203.111 81.6332C203.111 80.0361 203.234 78.5005 203.479 77.0262C203.725 75.4292 203.909 73.8935 204.032 72.4193C204.278 70.9451 204.339 69.4709 204.217 67.9967C204.217 66.3996 203.848 64.8639 203.111 63.3897C203.111 61.1784 202.927 59.2742 202.558 57.6771C202.312 56.0801 201.944 54.6059 201.452 53.2545C201.084 51.9031 200.715 50.6132 200.347 49.3847C200.101 48.1562 199.978 46.8048 199.978 45.3306Z" fill="#A0BDDB"/>
<path d="M245.974 3.31538V36.6695H243.026V42.7507C243.026 45.822 243.517 48.2176 244.5 49.9375C245.483 51.6574 245.974 53.3159 245.974 54.913C245.974 57.1243 245.79 59.0899 245.421 60.8099C245.176 62.4069 244.868 63.8811 244.5 65.2325C244.131 66.461 243.763 67.6895 243.394 68.918C243.148 70.1466 243.026 71.4979 243.026 72.9721C243.026 76.1663 243.517 78.6233 244.5 80.3432C245.483 82.0632 245.974 83.7216 245.974 85.3187V109.459C245.237 110.933 244.807 112.776 244.684 114.987C244.561 117.076 244.561 119.287 244.684 121.621C244.93 123.955 245.176 126.228 245.421 128.44C245.79 130.528 245.974 132.309 245.974 133.784V139.865C245.974 140.602 245.79 141.708 245.421 143.182C245.053 144.533 244.5 145.884 243.763 147.236C243.026 148.464 242.043 149.57 240.814 150.553C239.709 151.536 238.357 152.027 236.76 152.027C235.777 152.027 234.979 151.351 234.365 150C233.873 148.649 233.505 146.929 233.259 144.84C233.013 142.752 232.89 140.479 232.89 138.022C233.013 135.565 233.136 133.231 233.259 131.019C233.382 128.685 233.505 126.72 233.627 125.123C233.75 123.403 233.812 122.297 233.812 121.806C233.812 120.946 233.627 119.84 233.259 118.489C233.013 117.014 232.645 115.54 232.153 114.066C231.785 112.469 231.416 110.995 231.048 109.643C230.802 108.292 230.679 107.248 230.679 106.511C231.416 106.511 231.969 105.896 232.338 104.668C232.829 103.316 233.075 101.904 233.075 100.429C233.075 98.9552 232.829 97.6039 232.338 96.3753C231.969 95.024 231.416 94.3483 230.679 94.3483V54.913C229.942 54.1759 229.696 53.1316 229.942 51.7803C230.188 50.3061 230.556 48.8318 231.048 47.3576C231.662 45.7605 232.276 44.2863 232.89 42.935C233.505 41.5836 233.812 40.5394 233.812 39.8023V18.6104C233.812 17.8733 233.689 16.5219 233.443 14.5563C233.197 12.4678 233.075 10.3793 233.075 8.29086C233.075 6.20238 233.32 4.35961 233.812 2.76254C234.303 1.16547 235.286 0.366935 236.76 0.366935C238.357 0.366935 239.893 0.858342 241.367 1.84116C242.964 2.82397 244.5 3.31538 245.974 3.31538Z" fill="#A0BDDB"/>
<path d="M338.468 0.182663C339.205 1.04262 339.758 2.20971 340.127 3.68393C340.495 5.0353 340.741 6.50952 340.864 8.10658C341.11 9.5808 341.232 11.055 341.232 12.5292C341.355 13.8806 341.417 14.9248 341.417 15.6619V34.2739C341.417 35.871 341.232 37.4681 340.864 39.0651C340.618 40.6622 340.372 42.2593 340.127 43.8564C340.004 45.3306 340.004 46.8662 340.127 48.4633C340.25 50.0603 340.68 51.6574 341.417 53.2545V140.233C341.417 140.97 341.355 142.199 341.232 143.919C341.232 145.639 341.048 147.297 340.68 148.894C340.311 150.369 339.697 151.536 338.837 152.396C337.977 153.378 336.81 153.44 335.336 152.58C333.738 151.843 332.694 150.921 332.203 149.816C331.711 148.587 331.466 147.297 331.466 145.946C331.466 144.595 331.589 143.182 331.834 141.708C332.203 140.233 332.387 138.698 332.387 137.101V121.621C331.527 120.884 330.667 120.454 329.807 120.331C329.07 120.209 328.333 120.147 327.596 120.147C326.859 120.147 326.06 120.086 325.2 119.963C324.463 119.717 323.665 119.226 322.805 118.489C321.945 118.489 321.146 118.366 320.409 118.12C319.795 117.751 319.181 117.383 318.566 117.014C317.952 116.523 317.276 115.97 316.539 115.356C315.802 114.619 315.065 114.189 314.328 114.066C313.714 113.943 313.099 114.005 312.485 114.25C311.871 114.496 311.257 114.864 310.642 115.356C310.642 114.619 310.151 113.882 309.168 113.145C308.185 112.285 307.08 111.486 305.851 110.749C304.623 109.889 303.517 109.09 302.534 108.353C301.551 107.493 301.06 106.633 301.06 105.773C296.392 104.299 292.215 102.825 288.529 101.351C284.966 99.8766 280.851 98.341 276.183 96.7439C275.323 96.7439 274.831 97.2353 274.708 98.2181C274.708 99.2009 274.831 100.245 275.077 101.351C275.323 102.702 275.691 104.176 276.183 105.773C273.111 109.09 273.111 112.285 276.183 115.356C276.183 116.093 275.998 116.707 275.63 117.199C275.384 117.69 275.015 118.12 274.524 118.489C274.155 118.857 273.787 119.287 273.418 119.779C273.173 120.27 273.05 120.884 273.05 121.621C273.05 122.358 273.173 123.464 273.418 124.938C273.787 126.29 274.155 127.764 274.524 129.361C275.015 130.958 275.384 132.494 275.63 133.968C275.998 135.319 276.183 136.363 276.183 137.101C276.183 137.838 275.998 138.329 275.63 138.575C275.384 138.698 275.015 138.759 274.524 138.759C274.155 138.759 273.787 138.821 273.418 138.943C273.173 139.066 273.05 139.496 273.05 140.233V149.447C269.979 151.781 267.583 152.396 265.863 151.29C264.266 150.307 263.16 148.587 262.546 146.13C262.055 143.55 261.932 140.786 262.177 137.838C262.546 134.766 263.099 132.432 263.836 130.835C263.836 130.098 263.652 129.361 263.283 128.624C262.915 127.887 262.546 127.211 262.177 126.597C261.686 125.983 261.195 125.368 260.703 124.754C260.703 124.017 260.826 123.403 261.072 122.911C261.44 122.42 261.809 121.99 262.177 121.621C262.669 121.253 263.037 120.823 263.283 120.331C263.652 119.84 263.836 119.226 263.836 118.489C263.836 117.751 263.652 116.83 263.283 115.724C263.037 114.619 262.792 113.575 262.546 112.592C262.423 111.609 262.423 110.81 262.546 110.196C262.669 109.459 263.099 109.09 263.836 109.09V68.7338C263.099 68.7338 262.485 68.2424 261.993 67.2596C261.625 66.2767 261.318 65.1096 261.072 63.7583C260.949 62.2841 260.826 60.8713 260.703 59.5199C260.703 58.0457 260.703 56.94 260.703 56.2029V43.8564C261.44 42.9964 261.87 42.1979 261.993 41.4608C262.116 40.6008 262.055 39.8023 261.809 39.0651C261.686 38.328 261.44 37.5909 261.072 36.8538C260.826 35.9939 260.703 35.1339 260.703 34.2739C260.703 33.5368 260.58 31.8783 260.335 29.2985C260.089 26.5957 259.966 23.8316 259.966 21.006C259.966 18.0576 260.212 15.4777 260.703 13.2663C261.195 10.9322 262.239 9.76508 263.836 9.76508C265.31 8.90512 266.6 8.59799 267.706 8.84368C268.934 9.08939 269.917 9.70365 270.654 10.6865C271.514 11.6693 272.128 12.8978 272.497 14.372C272.866 15.7234 273.05 17.1976 273.05 18.7947V31.5098C272.313 33.7211 272.374 35.8096 273.234 37.7752C274.217 39.618 275.445 41.2765 276.92 42.7507C278.517 44.1021 280.175 45.1463 281.895 45.8834C283.615 46.6205 284.844 46.9891 285.581 46.9891L288.713 49.9375H291.662L294.795 53.2545H297.927V56.2029H301.06C301.06 57.8 301.736 58.7214 303.087 58.9671C304.438 59.2128 305.851 59.3356 307.325 59.3356C310.52 62.5298 313.652 65.0482 316.724 66.891C319.795 68.6109 322.928 70.2694 326.122 71.8665C327.104 71.3751 327.842 70.208 328.333 68.3652C328.947 66.3996 329.377 64.0654 329.623 61.3627C329.869 58.6599 329.93 55.8344 329.807 52.8859C329.807 49.8146 329.746 46.8662 329.623 44.0406C329.5 41.215 329.377 38.6966 329.254 36.4853C329.132 34.1511 329.07 32.4926 329.07 31.5098V3.49965C330.79 1.77973 332.387 0.796922 333.861 0.551218C335.336 0.305515 336.871 0.182663 338.468 0.182663ZM273.05 59.3356L276.183 68.7338C275.568 70.4537 275.015 72.1122 274.524 73.7093C274.155 75.0606 273.787 76.4734 273.418 77.9476C273.173 79.299 273.05 80.3432 273.05 81.0803C273.05 81.8174 273.848 82.616 275.445 83.4759C277.165 84.2131 279.07 85.0116 281.158 85.8716C283.369 86.6087 285.458 87.4072 287.423 88.2671C289.512 89.0043 290.925 89.7414 291.662 90.4785H294.795C295.532 91.0927 296.207 91.6456 296.822 92.137C297.436 92.5055 298.05 92.8741 298.664 93.2426C299.401 93.4883 300.2 93.6112 301.06 93.6112C301.674 94.2254 302.35 94.7783 303.087 95.2697C303.701 95.6382 304.377 96.0068 305.114 96.3753C305.851 96.621 306.588 96.7439 307.325 96.7439C308.185 97.481 308.677 98.0953 308.8 98.5867C308.922 98.9552 308.984 99.2624 308.984 99.5081C308.984 99.6309 309.045 99.7538 309.168 99.8766C309.291 99.8766 309.782 99.8766 310.642 99.8766C312.117 101.351 313.591 102.211 315.065 102.456C316.539 102.702 318.075 102.825 319.672 102.825C320.409 102.825 321.023 103.009 321.515 103.378C322.006 103.624 322.559 103.931 323.173 104.299C323.787 104.668 324.525 105.036 325.385 105.405C326.245 105.651 327.473 105.773 329.07 105.773C329.07 105.036 329.193 104.299 329.439 103.562C329.807 102.702 330.053 101.842 330.176 100.982C330.421 99.9995 330.483 98.9552 330.36 97.8496C330.36 96.621 329.93 95.2083 329.07 93.6112C329.93 92.8741 330.36 92.0755 330.36 91.2156C330.483 90.3556 330.421 89.4342 330.176 88.4514C330.053 87.4686 329.807 86.4244 329.439 85.3187C329.193 84.0902 329.07 82.6774 329.07 81.0803C325.876 81.0803 322.252 80.4661 318.198 79.2376C314.144 77.8862 310.52 76.4734 307.325 74.9992C305.728 74.2621 304.316 73.3407 303.087 72.235C301.858 71.1294 300.63 69.9623 299.401 68.7338C298.296 67.5053 297.129 66.3382 295.9 65.2325C294.672 64.1268 293.259 63.144 291.662 62.2841C290.188 62.2841 288.652 61.7927 287.055 60.8099C285.581 59.827 284.106 59.3356 282.632 59.3356C281.772 59.3356 280.912 59.0285 280.052 58.4142C279.315 57.8 278.517 57.1243 277.657 56.3872C276.92 55.5272 276.121 54.7901 275.261 54.1759C274.524 53.5616 273.787 53.2545 273.05 53.2545V59.3356Z" fill="#A0BDDB"/>
<path d="M12.9936 207.205H7.74598V217.7H0.749207V175.719H16.4919C20.8467 175.719 24.5546 177.259 27.6157 180.338C30.695 183.399 32.2347 187.107 32.2347 191.462C32.2347 195.817 30.7041 199.525 27.6431 202.586C25.7117 204.517 23.5343 205.847 21.1109 206.576L32.2347 217.7H23.4887L12.9936 207.205ZM7.74598 182.716V200.208H16.4919C18.9153 200.208 20.9743 199.361 22.6688 197.666C24.3815 195.954 25.2379 193.885 25.2379 191.462C25.2379 189.039 24.3815 186.98 22.6688 185.285C20.9743 183.573 18.9153 182.716 16.4919 182.716H7.74598Z" fill="#6EA3DB"/>
<path d="M90.5594 175.719V182.716H73.0674V193.211H87.061V200.208H73.0674V210.703H90.5594V217.7H66.0706V175.719H90.5594Z" fill="#6EA3DB"/>
<path d="M143.172 180.967C138.835 180.967 135.136 182.497 132.075 185.559C128.996 188.638 127.456 192.355 127.456 196.71C127.456 201.064 128.987 204.781 132.048 207.861C135.127 210.922 138.844 212.452 143.199 212.452C147.135 212.452 150.542 211.195 153.421 208.681L158.395 213.655C154.132 217.518 149.066 219.449 143.199 219.449C136.913 219.449 131.547 217.235 127.101 212.808C122.673 208.362 120.46 202.996 120.46 196.71C120.46 190.424 122.683 185.058 127.128 180.612C131.556 176.184 136.904 173.97 143.172 173.97H143.199C149.485 173.97 154.851 176.184 159.297 180.612C159.589 180.903 159.871 181.204 160.144 181.514L155.198 186.461C154.924 186.151 154.642 185.85 154.35 185.559C151.271 182.497 147.554 180.967 143.199 180.967H143.172Z" fill="#6EA3DB"/>
<path d="M198.517 217.7H191.521V175.719H198.517V217.7Z" fill="#6EA3DB"/>
<path d="M243.942 207.205V217.7H236.945V175.719H252.688C257.042 175.719 260.75 177.259 263.811 180.338C266.891 183.399 268.43 187.107 268.43 191.462C268.43 195.817 266.891 199.534 263.811 202.613C260.75 205.674 257.042 207.205 252.688 207.205H243.942ZM243.942 182.716V200.208H252.688C255.111 200.208 257.17 199.361 258.865 197.666C260.577 195.954 261.434 193.885 261.434 191.462C261.434 189.039 260.577 186.98 258.865 185.285C257.17 183.573 255.111 182.716 252.688 182.716H243.942Z" fill="#6EA3DB"/>
<path d="M326.045 175.719V182.716H308.553V193.211H322.546V200.208H308.553V210.703H326.045V217.7H301.556V175.719H326.045Z" fill="#6EA3DB"/>
<path d="M372.781 192.692L374.311 193.512C376.552 194.715 378.548 195.99 380.297 197.338C382.046 198.668 383.394 200.181 384.342 201.875C385.125 203.296 385.517 204.909 385.517 206.713C385.517 207.096 385.499 207.487 385.462 207.888C385.226 210.457 384.333 212.635 382.784 214.42C381.253 216.206 379.258 217.518 376.798 218.356C374.94 218.994 372.936 219.313 370.786 219.313C370.093 219.313 369.383 219.276 368.654 219.203C365.046 218.893 362.003 217.855 359.525 216.087C358.559 215.413 357.712 214.666 356.983 213.846L361.247 208.134C361.939 209.009 362.768 209.765 363.734 210.403C365.374 211.478 367.251 212.115 369.364 212.316C369.838 212.352 370.294 212.37 370.731 212.37C372.608 212.37 374.339 211.96 375.924 211.141C377.509 210.302 378.375 209.054 378.52 207.396C378.539 207.25 378.548 207.114 378.548 206.986C378.548 206.112 378.274 205.273 377.728 204.472C377.199 203.652 376.434 202.85 375.432 202.067C374.448 201.265 373.346 200.509 372.125 199.798C371.032 199.16 369.938 198.55 368.845 197.967L368.408 197.694C367.151 197.038 365.912 196.327 364.691 195.562C363.488 194.778 362.404 193.895 361.438 192.911C360.473 191.909 359.726 190.761 359.197 189.467C358.76 188.465 358.541 187.326 358.541 186.051C358.541 185.704 358.559 185.349 358.596 184.985C358.815 182.598 359.634 180.548 361.056 178.835C362.477 177.122 364.308 175.847 366.549 175.009C368.28 174.353 370.139 174.025 372.125 174.025C372.671 174.025 373.236 174.052 373.819 174.107C376.953 174.38 379.568 175.309 381.663 176.895C382.301 177.387 382.875 177.915 383.385 178.48L379.286 184.001C378.794 183.399 378.238 182.871 377.618 182.415C376.325 181.504 374.876 180.976 373.273 180.83C372.945 180.794 372.626 180.776 372.316 180.776C370.713 180.776 369.219 181.222 367.834 182.115C366.449 182.989 365.684 184.201 365.538 185.75C365.52 185.877 365.511 186.014 365.511 186.16C365.511 186.998 365.784 187.763 366.331 188.456C366.877 189.148 367.688 189.822 368.763 190.478C369.856 191.134 371.114 191.827 372.535 192.555L372.781 192.692Z" fill="#6EA3DB"/>
</svg>
